<?xml version="1.0" standalone="no"?>
<!DOCTYPE svg PUBLIC "-//W3C//DTD SVG 20010904//EN"
 "http://www.w3.org/TR/2001/REC-SVG-20010904/DTD/svg10.dtd">
<svg version="1.0" xmlns="http://www.w3.org/2000/svg"
 width="1000.000000pt" height="1000.000000pt" viewBox="0 0 1000.000000 1000.000000"
 preserveAspectRatio="xMidYMid meet">
<metadata>
Created by potrace 1.14, written by Peter Selinger 2001-2017
</metadata>
<g transform="translate(0.000000,1000.000000) scale(0.100000,-0.100000)"
fill="#000000" stroke="none">
<path d="M4499 9219 c0 -57 -2 -160 -4 -229 -2 -69 -6 -228 -10 -355 -3 -126
-8 -311 -11 -410 -2 -99 -6 -251 -8 -337 -3 -87 -1 -158 4 -158 4 0 45 11 91
24 46 13 167 47 269 75 102 28 214 60 250 71 66 19 143 40 170 45 8 2 16 4 17
4 1 1 -27 52 -61 114 -98 175 -113 202 -199 357 -44 80 -89 159 -99 175 -10
17 -21 37 -25 45 -4 8 -69 128 -146 265 -77 138 -159 286 -184 330 -24 44 -46
81 -49 84 -2 2 -4 -43 -5 -100z"/>
<path d="M2132 7936 c6 -11 39 -65 74 -118 35 -53 64 -100 64 -103 0 -3 5 -11
10 -18 6 -7 34 -48 62 -92 28 -44 70 -109 93 -145 23 -36 75 -117 115 -180 40
-63 92 -144 115 -180 24 -36 80 -123 125 -195 143 -226 182 -285 189 -285 4 0
42 42 84 93 42 50 88 106 102 122 72 82 120 139 139 163 11 15 23 29 26 32 23
22 180 211 180 217 0 4 -181 99 -403 211 -221 112 -533 270 -694 351 -217 110
-290 143 -281 127z"/>
<path d="M5620 7813 c-372 -23 -731 -103 -1065 -238 -752 -303 -1369 -868
-1735 -1590 -124 -243 -201 -448 -265 -704 -39 -156 -39 -152 -64 -331 -117
-804 55 -1603 492 -2290 41 -64 195 -280 206 -290 4 -3 43 -48 87 -100 294
-344 712 -657 1135 -850 127 -59 130 -60 259 -106 277 -100 622 -172 909 -190
122 -7 366 -7 451 0 36 3 94 9 130 12 101 8 299 43 433 75 508 123 1008 379
1387 709 367 320 668 715 857 1125 71 156 83 183 148 370 30 85 85 295 105
400 45 238 54 345 55 640 0 307 -10 424 -60 690 -80 422 -306 930 -578 1298
-130 177 -335 400 -502 547 -501 441 -1148 727 -1820 805 -127 15 -451 25
-565 18z"/>
<path d="M2337 5663 c-1 0 -78 -4 -172 -8 -93 -4 -206 -8 -250 -10 -44 -2
-145 -7 -225 -10 -80 -4 -174 -8 -210 -10 -36 -2 -137 -7 -225 -11 -88 -4
-185 -8 -215 -9 -30 -2 -84 -4 -120 -4 -37 -1 -60 -5 -55 -10 6 -5 44 -27 85
-48 41 -22 145 -77 230 -123 261 -139 291 -155 415 -220 66 -34 134 -71 150
-80 17 -10 80 -43 140 -75 101 -53 144 -76 309 -164 53 -29 70 -32 71 -13 1 4
5 25 9 47 4 22 10 51 12 65 3 14 11 57 19 95 8 39 17 84 20 100 2 17 14 77 25
135 12 58 23 116 26 130 2 14 7 36 9 50 3 14 8 36 10 50 8 40 14 73 20 100 5
24 3 26 -35 25 -23 0 -42 -1 -43 -2z"/>
<path d="M2194 3721 c-45 -31 -121 -83 -170 -117 -49 -34 -138 -95 -199 -137
-60 -42 -153 -105 -205 -141 -141 -96 -254 -174 -265 -183 -5 -5 -62 -44 -125
-87 -63 -42 -144 -98 -180 -122 l-64 -46 84 7 c47 3 110 8 140 10 30 2 93 7
140 10 47 3 110 8 140 10 30 2 96 7 145 10 50 3 115 8 145 10 30 2 93 7 140
10 47 3 115 8 153 10 37 3 100 7 140 10 39 3 101 7 137 10 36 3 101 7 144 10
44 3 81 7 83 9 2 1 -23 72 -56 157 -168 439 -232 604 -239 610 -4 4 -44 -19
-88 -50z"/>
<path d="M3006 1723 c-95 -192 -251 -501 -345 -687 -94 -187 -171 -343 -171
-347 0 -7 194 111 260 158 14 10 106 70 205 133 259 165 359 230 424 272 110
71 317 204 378 243 35 22 62 43 60 46 -2 5 -169 148 -296 254 -14 11 -32 27
-40 35 -9 8 -41 35 -71 60 -30 25 -66 55 -80 66 -99 85 -135 114 -141 114 -5
0 -87 -156 -183 -347z"/>
</g>
</svg>
