<?xml version="1.0" encoding="UTF-8"?>
<!DOCTYPE svg PUBLIC "-//W3C//DTD SVG 1.1//EN" "http://www.w3.org/Graphics/SVG/1.1/DTD/svg11.dtd">
<!-- Creator: CorelDRAW (Versão de avaliação) -->
<svg xmlns="http://www.w3.org/2000/svg" xml:space="preserve" width="2385px" height="2385px" version="1.1" style="shape-rendering:geometricPrecision; text-rendering:geometricPrecision; image-rendering:optimizeQuality; fill-rule:evenodd; clip-rule:evenodd"
viewBox="0 0 1288.52 1288.52"
 xmlns:xlink="http://www.w3.org/1999/xlink"
 xmlns:xodm="http://www.corel.com/coreldraw/odm/2003">
 <defs>
  <style type="text/css">
   <![CDATA[
    .fil0 {fill:none}
    .fil1 {fill:#F3C523}
    .fil2 {fill:url(#id0)}
   ]]>
  </style>
  <radialGradient id="id0" gradientUnits="userSpaceOnUse" gradientTransform="matrix(-1.06383 -1.30282E-16 6.87761E-17 -0.5616 1278 994)" cx="619.45" cy="636.69" r="388.69" fx="619.45" fy="636.69">
   <stop offset="0" style="stop-opacity:1; stop-color:#FFD519"/>
   <stop offset="0.478431" style="stop-opacity:1; stop-color:#F8C11B"/>
   <stop offset="1" style="stop-opacity:1; stop-color:#F1AE1C"/>
  </radialGradient>
 </defs>
 <g id="Camada_x0020_1">
  <metadata id="CorelCorpID_0Corel-Layer"/>
  <rect class="fil0" width="1288.52" height="1288.52"/>
  <path class="fil1" d="M1057.2 645.09c-1.29,3.13 -1.31,6.1 -1.84,9.18l-7.67 32.3c-3.4,14.57 -7.25,28.87 -10.84,43.33 -1.32,0.56 -0.97,-1.5 -2.22,3.99 -0.53,2.3 -1.11,4.59 -1.67,6.89 2.49,0.53 9.14,0.32 11.54,0.3 4.33,-0.02 7.88,0.04 12.21,0.09 42.77,0.48 99.6,-0.94 141.58,-2.62 4.32,-0.17 7.57,-0.4 11.9,-0.42 3.68,-0.01 8.9,-0.64 12.2,0.08l-143.87 -81.97c-3.83,-2.02 -6.61,-3.66 -10.56,-5.72 -2.85,-1.49 -8.08,-5.07 -10.76,-5.43zm-823.89 7.65c1.13,3.19 0.99,6.15 1.37,9.25l6.04 32.65c2.65,14.73 5.78,29.2 8.64,43.83 1.3,0.62 1.04,-1.45 2.02,4.09 0.41,2.33 0.87,4.64 1.32,6.96 -2.51,0.41 -9.15,-0.13 -11.55,-0.27 -4.32,-0.25 -7.86,-0.36 -12.19,-0.53 -42.74,-1.67 -99.43,-5.95 -141.27,-9.74 -4.3,-0.39 -7.54,-0.78 -11.86,-1.01 -3.67,-0.2 -8.87,-1.09 -12.19,-0.54l147.81 -74.63c3.93,-1.82 6.78,-3.32 10.84,-5.18 2.91,-1.35 8.31,-4.66 11.02,-4.88zm75.02 194.55c-1.22,-3.16 -3.26,-5.31 -5,-7.91l-16.75 -28.66c-7.6,-12.89 -14.69,-25.89 -22.08,-38.83 0.58,-1.32 1.74,0.41 -1.14,-4.42 -1.21,-2.03 -2.37,-4.09 -3.55,-6.14 -2.16,1.33 -6.83,6.08 -8.56,7.75 -3.11,3 -5.72,5.41 -8.89,8.36 -31.28,29.18 -71.41,69.44 -100.62,99.64 -3.01,3.1 -5.2,5.51 -8.32,8.51 -2.65,2.55 -6,6.62 -8.88,8.37l160.67 -40.01c4.16,-1.19 7.31,-1.93 11.59,-3.16 3.09,-0.89 9.34,-1.9 11.53,-3.5zm3.99 5.17c2.74,1.99 4.31,4.51 6.37,6.85l23.46 23.5c10.52,10.64 21.29,20.8 31.92,31.25 1.42,-0.23 0.04,-1.79 3.98,2.22 1.66,1.69 3.35,3.34 5.04,5 -1.84,1.76 -7.62,5.06 -9.68,6.31 -3.7,2.24 -6.69,4.15 -10.35,6.46 -36.18,22.82 -85.34,51.37 -121.98,71.93 -3.77,2.11 -6.65,3.62 -10.35,5.87 -3.14,1.92 -7.93,4.12 -10.35,6.46l79.61 -145.19c2.21,-3.72 3.72,-6.57 6.01,-10.4 1.64,-2.76 4.22,-8.55 6.32,-10.26zm171.33 130.89c-2.64,-2.12 -5.49,-2.97 -8.29,-4.35l-28.84 -16.45c-13.03,-7.36 -25.66,-15.08 -38.54,-22.59 -0.15,-1.43 1.72,-0.5 -3.19,-3.25 -2.07,-1.15 -4.1,-2.36 -6.14,-3.54 -1.21,2.23 -2.88,8.68 -3.55,10.99 -1.19,4.16 -2.24,7.54 -3.51,11.68 -12.5,40.91 -27.12,95.85 -37.33,136.6 -1.04,4.2 -1.74,7.38 -2.94,11.54 -1.02,3.53 -1.89,8.73 -3.51,11.68l119.14 -114.99c3.01,-3.11 5.37,-5.31 8.46,-8.52 2.23,-2.31 7.14,-6.32 8.24,-8.8zm6.04 2.49c3.36,0.35 5.98,1.75 8.94,2.74l32.06 8.63c14.44,3.95 28.84,7.36 43.27,11.09 1.12,-0.9 -0.86,-1.57 4.56,-0.06 2.28,0.64 4.57,1.21 6.86,1.81 -0.72,2.44 -4.07,8.19 -5.22,10.3 -2.09,3.79 -3.72,6.94 -5.74,10.77 -19.92,37.85 -48.22,87.16 -69.67,123.28 -2.21,3.72 -3.95,6.47 -6.03,10.27 -1.76,3.23 -4.81,7.53 -5.74,10.77l-3.64 -165.55c0.06,-4.32 -0.06,-7.55 0,-12.01 0.04,-3.21 -0.62,-9.51 0.35,-12.04zm213.81 27.68c-3.34,-0.51 -6.23,0.18 -9.35,0.38l-33.19 0.18c-14.97,0.14 -29.77,-0.23 -44.67,-0.3 -0.85,-1.16 1.23,-1.29 -4.4,-1.22 -2.36,0.03 -4.72,0.01 -7.09,0 0.07,2.55 1.85,8.96 2.43,11.3 1.05,4.19 1.83,7.65 2.8,11.87 9.63,41.68 24.43,96.57 35.97,136.97 1.19,4.15 2.18,7.26 3.22,11.46 0.88,3.57 2.73,8.5 2.8,11.87l45.69 -159.15c1.05,-4.2 1.99,-7.29 3.06,-11.62 0.78,-3.12 3.02,-9.04 2.73,-11.74zm6.48 -0.86c3.09,-1.38 6.06,-1.47 9.12,-2.1l32.07 -8.56c14.48,-3.79 28.66,-8.04 43.03,-12.02 0.51,-1.35 -1.53,-0.93 3.91,-2.34 2.3,-0.59 4.57,-1.23 6.85,-1.86 0.6,2.47 0.57,9.13 0.62,11.53 0.09,4.33 0.25,7.87 0.42,12.2 1.67,42.74 1.82,99.59 1.3,141.6 -0.05,4.32 -0.18,7.58 -0.08,11.91 0.08,3.67 -0.4,8.92 0.41,12.19l-85.92 -141.55c-2.12,-3.77 -3.83,-6.5 -6.01,-10.4 -1.57,-2.8 -5.29,-7.92 -5.72,-10.6zm106.14 -29.31c2.64,-2.12 5.48,-2.97 8.28,-4.35l28.84 -16.45c13.03,-7.36 25.67,-15.08 38.54,-22.59 0.16,-1.43 -1.72,-0.5 3.2,-3.25 2.06,-1.15 4.09,-2.36 6.14,-3.54 1.21,2.23 2.88,8.68 3.54,10.99 1.19,4.16 2.25,7.54 3.51,11.68 12.51,40.91 27.13,95.85 37.33,136.6 1.05,4.2 1.75,7.38 2.95,11.54 1.02,3.53 1.89,8.73 3.51,11.68l-119.15 -114.99c-3.01,-3.11 -5.36,-5.31 -8.46,-8.52 -2.23,-2.31 -7.13,-6.32 -8.23,-8.8zm173.55 -133.76c-2.72,2.01 -4.26,4.55 -6.31,6.9l-23.25 23.7c-10.44,10.73 -21.12,20.98 -31.66,31.51 -1.43,-0.21 -0.06,-1.78 -3.96,2.27 -1.65,1.7 -3.32,3.36 -5,5.03 1.86,1.74 7.67,5 9.73,6.23 3.72,2.21 6.73,4.09 10.41,6.37 36.37,22.51 85.77,50.65 122.59,70.89 3.78,2.09 6.68,3.57 10.4,5.79 3.16,1.89 7.96,4.05 10.4,6.37l-80.84 -144.5c-2.25,-3.71 -3.78,-6.54 -6.1,-10.36 -1.66,-2.74 -4.29,-8.51 -6.41,-10.2zm0.65 -12.22c1.01,-3.23 2.9,-5.51 4.46,-8.22l14.8 -29.72c6.73,-13.36 12.93,-26.81 19.45,-40.21 -0.67,-1.28 -1.71,0.53 0.84,-4.48 1.08,-2.11 2.09,-4.24 3.13,-6.37 2.25,1.19 7.23,5.61 9.06,7.16 3.31,2.8 6.07,5.02 9.43,7.76 33.15,27.03 75.88,64.53 107.04,92.71 3.2,2.89 5.55,5.15 8.87,7.94 2.81,2.37 6.42,6.2 9.41,7.75l-162.98 -29.21c-4.23,-0.91 -7.41,-1.43 -11.78,-2.38 -3.13,-0.68 -9.44,-1.28 -11.73,-2.73z"/>
  <path class="fil1" d="M1057.2 636.88c-1.29,-3.13 -1.31,-6.09 -1.84,-9.17l-7.67 -32.3c-3.4,-14.58 -7.25,-28.87 -10.84,-43.34 -1.32,-0.55 -0.97,1.51 -2.22,-3.98 -0.53,-2.31 -1.11,-4.59 -1.67,-6.89 2.49,-0.53 9.14,-0.32 11.54,-0.31 4.33,0.03 7.88,-0.03 12.21,-0.08 42.77,-0.49 99.6,0.94 141.58,2.61 4.32,0.18 7.57,0.4 11.9,0.42 3.68,0.02 8.9,0.65 12.2,-0.08l-143.87 81.98c-3.83,2.01 -6.61,3.65 -10.56,5.72 -2.85,1.49 -8.08,5.07 -10.76,5.42zm-823.89 -7.65c1.13,-3.19 0.99,-6.15 1.37,-9.25l6.04 -32.65c2.65,-14.72 5.78,-29.2 8.64,-43.82 1.3,-0.62 1.04,1.45 2.02,-4.09 0.41,-2.33 0.87,-4.65 1.32,-6.97 -2.51,-0.4 -9.15,0.14 -11.55,0.28 -4.32,0.24 -7.86,0.36 -12.19,0.53 -42.74,1.66 -99.43,5.95 -141.27,9.73 -4.3,0.39 -7.54,0.78 -11.86,1.02 -3.67,0.2 -8.87,1.09 -12.19,0.53l147.81 74.64c3.93,1.82 6.78,3.31 10.84,5.18 2.91,1.34 8.31,4.66 11.02,4.87zm75.02 -194.54c-1.22,3.15 -3.26,5.31 -5,7.91l-16.75 28.66c-7.6,12.89 -14.69,25.89 -22.08,38.83 0.58,1.32 1.74,-0.42 -1.14,4.42 -1.21,2.03 -2.37,4.09 -3.55,6.14 -2.16,-1.34 -6.83,-6.08 -8.56,-7.75 -3.11,-3.01 -5.72,-5.41 -8.89,-8.37 -31.28,-29.17 -71.41,-69.44 -100.62,-99.63 -3.01,-3.11 -5.2,-5.51 -8.32,-8.52 -2.65,-2.55 -6,-6.61 -8.88,-8.36l160.67 40.01c4.16,1.19 7.31,1.92 11.59,3.15 3.09,0.89 9.34,1.91 11.53,3.51zm3.99 -5.18c2.74,-1.99 4.31,-4.51 6.37,-6.85l23.46 -23.5c10.52,-10.64 21.29,-20.8 31.92,-31.24 1.42,0.23 0.04,1.79 3.98,-2.23 1.66,-1.69 3.35,-3.33 5.04,-4.99 -1.84,-1.76 -7.62,-5.07 -9.68,-6.31 -3.7,-2.24 -6.69,-4.15 -10.35,-6.46 -36.18,-22.82 -85.34,-51.37 -121.98,-71.93 -3.77,-2.12 -6.65,-3.63 -10.35,-5.88 -3.14,-1.91 -7.93,-4.11 -10.35,-6.45l79.61 145.18c2.21,3.72 3.72,6.57 6.01,10.41 1.64,2.75 4.22,8.54 6.32,10.25zm171.33 -130.88c-2.64,2.11 -5.49,2.96 -8.29,4.34l-28.84 16.45c-13.03,7.36 -25.66,15.08 -38.54,22.59 -0.15,1.43 1.72,0.51 -3.19,3.26 -2.07,1.15 -4.1,2.35 -6.14,3.54 -1.21,-2.24 -2.88,-8.68 -3.55,-10.99 -1.19,-4.16 -2.24,-7.55 -3.51,-11.69 -12.5,-40.91 -27.12,-95.85 -37.33,-136.6 -1.04,-4.19 -1.74,-7.37 -2.94,-11.53 -1.02,-3.54 -1.89,-8.73 -3.51,-11.69l119.14 114.99c3.01,3.11 5.37,5.32 8.46,8.53 2.23,2.31 7.14,6.32 8.24,8.8zm6.04 -2.49c3.36,-0.36 5.98,-1.75 8.94,-2.75l32.06 -8.62c14.44,-3.95 28.84,-7.37 43.27,-11.1 1.12,0.91 -0.86,1.57 4.56,0.07 2.28,-0.64 4.57,-1.22 6.86,-1.81 -0.72,-2.45 -4.07,-8.2 -5.22,-10.3 -2.09,-3.8 -3.72,-6.94 -5.74,-10.78 -19.92,-37.85 -48.22,-87.16 -69.67,-123.28 -2.21,-3.71 -3.95,-6.46 -6.03,-10.26 -1.76,-3.23 -4.81,-7.53 -5.74,-10.77l-3.64 165.54c0.06,4.33 -0.06,7.55 0,12.01 0.04,3.22 -0.62,9.52 0.35,12.05zm213.81 -27.69c-3.34,0.52 -6.23,-0.17 -9.35,-0.38l-33.19 -0.17c-14.97,-0.14 -29.77,0.23 -44.67,0.29 -0.85,1.16 1.23,1.3 -4.4,1.22 -2.36,-0.03 -4.72,-0.01 -7.09,0 0.07,-2.54 1.85,-8.96 2.43,-11.29 1.05,-4.2 1.83,-7.66 2.8,-11.88 9.63,-41.68 24.43,-96.57 35.97,-136.96 1.19,-4.15 2.18,-7.26 3.22,-11.46 0.88,-3.57 2.73,-8.51 2.8,-11.88l45.69 159.16c1.05,4.2 1.99,7.28 3.06,11.61 0.78,3.12 3.02,9.04 2.73,11.74zm6.48 0.87c3.09,1.37 6.06,1.47 9.12,2.09l32.07 8.56c14.48,3.8 28.66,8.05 43.03,12.03 0.51,1.34 -1.53,0.93 3.91,2.33 2.3,0.59 4.57,1.24 6.85,1.86 0.6,-2.47 0.57,-9.13 0.62,-11.53 0.09,-4.32 0.25,-7.87 0.42,-12.19 1.67,-42.75 1.82,-99.6 1.3,-141.61 -0.05,-4.31 -0.18,-7.57 -0.08,-11.9 0.08,-3.68 -0.4,-8.92 0.41,-12.19l-85.92 141.54c-2.12,3.78 -3.83,6.51 -6.01,10.4 -1.57,2.81 -5.29,7.93 -5.72,10.61zm106.14 29.31c2.64,2.11 5.48,2.96 8.28,4.34l28.84 16.45c13.03,7.36 25.67,15.08 38.54,22.59 0.16,1.43 -1.72,0.51 3.2,3.26 2.06,1.15 4.09,2.35 6.14,3.54 1.21,-2.24 2.88,-8.68 3.54,-10.99 1.19,-4.16 2.25,-7.55 3.51,-11.69 12.51,-40.91 27.13,-95.85 37.33,-136.6 1.05,-4.19 1.75,-7.37 2.95,-11.53 1.02,-3.54 1.89,-8.73 3.51,-11.69l-119.15 114.99c-3.01,3.11 -5.36,5.32 -8.46,8.53 -2.23,2.31 -7.13,6.32 -8.23,8.8zm173.55 133.76c-2.72,-2.02 -4.26,-4.55 -6.31,-6.91l-23.25 -23.7c-10.44,-10.72 -21.12,-20.97 -31.66,-31.51 -1.43,0.22 -0.06,1.79 -3.96,-2.26 -1.65,-1.7 -3.32,-3.36 -5,-5.04 1.86,-1.74 7.67,-5 9.73,-6.22 3.72,-2.21 6.73,-4.1 10.41,-6.38 36.37,-22.51 85.77,-50.64 122.59,-70.89 3.78,-2.08 6.68,-3.57 10.4,-5.79 3.16,-1.88 7.96,-4.05 10.4,-6.36l-80.84 144.5c-2.25,3.7 -3.78,6.54 -6.1,10.35 -1.66,2.75 -4.29,8.51 -6.41,10.21zm0.65 12.21c1.01,3.23 2.9,5.52 4.46,8.23l14.8 29.71c6.73,13.37 12.93,26.81 19.45,40.22 -0.67,1.27 -1.71,-0.54 0.84,4.48 1.08,2.11 2.09,4.24 3.13,6.36 2.25,-1.18 7.23,-5.61 9.06,-7.16 3.31,-2.79 6.07,-5.02 9.43,-7.75 33.15,-27.03 75.88,-64.53 107.04,-92.71 3.2,-2.9 5.55,-5.16 8.87,-7.94 2.81,-2.37 6.42,-6.2 9.41,-7.76l-162.98 29.22c-4.23,0.91 -7.41,1.43 -11.78,2.37 -3.13,0.68 -9.44,1.28 -11.73,2.73z"/>
  <path class="fil2" d="M644.26 1022.81c-226.81,0 -410.67,-157.14 -410.67,-350.97 0,-8.17 -3.23,-18.37 -2.79,-26.52 -0.44,-7.21 2.79,-21.45 2.79,-28.64 0,-193.84 183.86,-350.97 410.67,-350.97 226.8,0 410.67,157.13 410.67,350.97 0,8.17 3.23,18.37 2.78,26.52 0.44,7.21 -2.78,21.45 -2.78,28.64 0,193.83 -183.87,350.97 -410.67,350.97z"/>
 </g>
</svg>
