<?xml version="1.0" encoding="UTF-8"?>
<!DOCTYPE svg PUBLIC "-//W3C//DTD SVG 1.1//EN" "http://www.w3.org/Graphics/SVG/1.1/DTD/svg11.dtd">
<!-- Creator: CorelDRAW 2021 (64 Bit) -->
<svg xmlns="http://www.w3.org/2000/svg" xml:space="preserve" width="1568px" height="1568px" version="1.1" style="shape-rendering:geometricPrecision; text-rendering:geometricPrecision; image-rendering:optimizeQuality; fill-rule:evenodd; clip-rule:evenodd"
viewBox="0 0 1325.96 1325.96"
 xmlns:xlink="http://www.w3.org/1999/xlink"
 xmlns:xodm="http://www.corel.com/coreldraw/odm/2003">
 <defs>
  <style type="text/css">
   <![CDATA[
    .fil0 {fill:none}
    .fil6 {fill:#069140}
    .fil2 {fill:#0A8B3D}
    .fil1 {fill:#0B722B}
    .fil4 {fill:#0B873E}
    .fil3 {fill:#7ABC3E}
    .fil5 {fill:#A0D958}
   ]]>
  </style>
 </defs>
 <g id="Camada_x0020_1">
  <metadata id="CorelCorpID_0Corel-Layer"/>
  <rect class="fil0" x="19.95" y="19.95" width="1286.05" height="1286.05"/>
  <rect class="fil0" width="1325.96" height="1325.96"/>
  <g id="_2776678428944">
   <path class="fil1" d="M244.09 624.76c-29.45,-24.24 -78.87,-72 -101.16,-102.51 -9.06,-12.4 -16.25,-26.46 -25.15,-37.83 -8.64,121.38 64.86,234.01 124.74,294.3 68.81,69.28 165.36,122.71 279.16,141.44 101.37,16.68 171.56,-7.34 192.28,-0.85 -291.59,-95.01 -312.8,-127.47 -469.87,-294.55z"/>
   <path class="fil2" d="M644.72 1088.95l0.31 130.89 58.13 -0.02 1.32 -127.64c0.34,-28.45 -1.47,-44.11 25.79,-53.61 21.27,-7.41 52.62,-0.54 59.2,18.98 10.22,30.36 -6.89,136.54 4.49,156.16 4.83,5.92 5.04,4.35 28.2,4.07 10.68,-0.13 19.76,0.3 30.37,-1.24l1.82 -162.94c18.05,-10.73 40.48,-25.67 67.88,-13.32 32.76,14.76 23.99,53.54 23.9,103.68 -0.09,54.92 -4.78,68.62 55.36,66.14 2.9,-30.79 0.26,-72.96 0.04,-104.97 -0.29,-43.03 3.73,-59.19 -20.98,-83.74 -17.76,-17.65 -46.77,-28.04 -77.43,-28.43 -44.38,-0.56 -52.37,12.55 -77.67,27.63 -52.96,-38.32 -124.65,-36.98 -163.42,8.44 -18.9,22.15 -17.45,26.04 -17.31,59.92z"/>
   <path class="fil2" d="M198.38 1043.52c65.8,-26.76 95.51,106.36 30.1,131.01 -66.4,25.02 -99.37,-102.83 -30.1,-131.01zm-35.95 -22.39c-3.23,-55.7 13.48,-92.23 -60.45,-89.33 -4.18,22.53 -3.33,209.93 1.87,225.19 27.91,81.89 183.26,103.17 212.06,-1.63 8.26,-30.04 10.34,-75.55 -2.16,-104.57 -9.47,-21.99 -36.09,-46.5 -62.89,-53.87 -42.15,-11.6 -63.66,4.52 -88.43,24.21z"/>
   <path class="fil2" d="M503.32 1044.14c66.19,-21.09 90.1,109.79 24.97,132.37 -66.97,23.21 -95.52,-109.9 -24.97,-132.37zm-3.98 -51.99c-36.7,7.36 -54.21,21.35 -70.61,43.35 -59.15,79.33 -2.47,205.61 102.11,192.32 62.42,-7.94 97.59,-64.45 93.99,-132.46 -3.07,-58.11 -60.38,-116.27 -125.49,-103.21z"/>
   <path class="fil2" d="M1169.44 1110.29c0.57,25.31 -0.76,54.46 -17.01,66.2 -15.82,11.43 -55.93,11.94 -70.4,-1.06 -20.68,-18.58 -1.32,-44.14 14.27,-52.03 19.21,-9.72 47.42,-12.87 73.14,-13.11zm-129.48 -57.34l47.61 -0.1c23.64,-28.03 47.87,-18.83 84.18,-9.57 1.95,48.29 -23.92,32.37 -78.02,45.21 -33.71,8 -62.74,22.8 -68.75,56.74 -15.82,89.28 113.97,84.38 162.79,59.58 42.06,-21.36 37.7,-53.27 37.62,-83.5 -0.12,-42.82 8.83,-81.81 -19.68,-105.04 -23.64,-19.26 -59.47,-27.23 -97.89,-20.11 -29.96,5.55 -69.43,21.52 -67.86,56.79z"/>
   <path class="fil2" d="M332.77 1220.04l65.28 -0.24c0.4,-47.68 -0.9,-94.76 -1.36,-140.44 -0.68,-66.09 12.03,-86.63 -63.61,-82.09l-0.31 222.77z"/>
   <path class="fil2" d="M333.91 974.73l63.97 1.84c0.8,-48.6 -20.32,-44.49 -64.91,-44.15l0.94 42.31z"/>
   <path class="fil3" d="M336.72 569.69c-45.87,-64.51 -92.05,-153.14 -120.3,-219.97 -23.19,132.99 7.52,255.06 49.55,328.83 167.13,253.53 370.69,245.99 413.02,241.62 31.29,-2.36 36.26,-1.96 62.5,-5.48 7.94,-1.07 -92.62,-16.86 -98.93,-20.97 -216.29,-141.3 -203.65,-132.62 -305.84,-324.03z"/>
   <path class="fil4" d="M396.27 439.91c-42.4,-65.6 -49.29,-128.99 -62.75,-199.9 -52.82,115.32 -22.38,264.55 3.61,345.38 77.08,203.72 227.7,275.92 334.72,321.25 -114.52,-157.09 -211.48,-246.75 -275.58,-466.73z"/>
   <path class="fil5" d="M503 429.41c-31.1,-71.45 -33.96,-194.94 -35.53,-266.83 -71.41,104.57 -86.8,238.52 -64.68,353.82 32.3,194.88 118.55,355.88 311.17,402.9 -87.35,-173.22 -183.94,-263.21 -210.96,-489.89z"/>
   <path class="fil6" d="M843.93 806.48c-32.42,18.49 -75.3,21.57 -108.17,1.8 -80.8,-48.58 -81.49,-260.67 2.53,-304.97 38.55,-20.32 88.83,-12.03 118.09,10.48 78.37,60.31 77.22,241.55 -12.45,292.69zm-196.6 75.03c11.09,9.76 17.09,15.29 30.89,23.23 116.12,66.85 283.98,32.19 347.07,-91.09 140.32,-274.18 -158.02,-617.18 -348.59,-368.08 -43.05,56.27 -43.11,95.49 -56.15,111.49 -21.47,-42.37 -25.05,-184.97 -22.75,-245.11l5.03 -68.29c0.85,-19.53 7.29,-56.19 12.02,-76.52 3.46,-14.84 15.66,-56.42 15.37,-69.97 -35.11,27.61 -54.71,40.35 -80.18,90.4 -43.2,84.89 -54.28,177.83 -54.05,271.67 0.07,26.16 2.81,48.97 3.89,74.74 12.6,72.06 23.05,138.52 52.34,206.53 22.85,53.09 51.44,102.51 95.11,141z"/>
  </g>
 </g>
</svg>
